tunedGRF.mot
version=1
nRows=38
nColumns=19
inDegrees=yes

endheader
time	ground_force_vx	ground_force_vy	ground_force_vz	ground_force_px	ground_force_py	ground_force_pz	1_ground_force_vx	1_ground_force_vy	1_ground_force_vz	1_ground_force_px	1_ground_force_py	1_ground_force_pz	ground_torque_x	ground_torque_y	ground_torque_z	1_ground_torque_x	1_ground_torque_y	1_ground_torque_z
0.000000	0.000000	0.000000	0.000000	0.001275	-0.000115	-0.000375	88.266191	1023.238463	-96.940075	0.167976	-0.000115	0.107599	0.000000	0.000000	0.000000	0.000000	12.952249	0.000000	
0.012929	0.000000	0.000000	0.000000	0.013806	-0.000093	-0.000349	94.464846	1019.208562	-94.622113	0.173683	-0.000093	0.107902	0.000000	0.000000	0.000000	0.000000	12.741316	0.000000	
0.025859	29.228642	56.295431	-8.480742	0.575369	-0.000078	-0.043755	101.947461	1009.136941	-90.286544	0.178732	-0.000078	0.107840	0.000000	-1.848438	0.000000	0.000000	12.668851	0.000000	
0.038788	28.217911	84.932133	-12.526670	0.571185	-0.000068	-0.048754	110.294282	990.922930	-83.898134	0.183084	-0.000068	0.107444	0.000000	-1.330548	0.000000	0.000000	12.687661	0.000000	
0.051717	23.380941	122.124479	-16.300677	0.572011	-0.000062	-0.052746	118.725886	962.209211	-75.594012	0.186756	-0.000062	0.106769	0.000000	-0.697490	0.000000	0.000000	12.712632	0.000000	
0.064646	14.340402	168.898326	-19.251116	0.576936	-0.000068	-0.056353	126.173198	920.809018	-65.695485	0.189848	-0.000068	0.105858	0.000000	-0.088294	0.000000	0.000000	12.633226	0.000000	
0.077576	1.186474	225.816436	-20.887575	0.585222	-0.000087	-0.059733	131.408547	865.207041	-54.699870	0.192516	-0.000087	0.104749	0.000000	0.366088	0.000000	0.000000	12.329684	0.000000	
0.090505	-15.534783	292.717268	-20.885622	0.596080	-0.000107	-0.062841	133.233189	795.037053	-43.247664	0.194967	-0.000107	0.103506	0.000000	0.605721	0.000000	0.000000	11.697334	0.000000	
0.103434	-34.882963	368.536464	-19.165751	0.608702	-0.000117	-0.065614	130.695437	711.428088	-32.066562	0.197506	-0.000117	0.102160	0.000000	0.663525	0.000000	0.000000	10.672400	0.000000	
0.116364	-55.618062	451.263874	-15.909617	0.622296	-0.000112	-0.068004	123.301585	617.122580	-21.891362	0.200585	-0.000112	0.100717	0.000000	0.644231	0.000000	0.000000	9.248864	0.000000	
0.129293	-76.323005	538.055579	-11.499296	0.636135	-0.000086	-0.069987	111.170486	516.305900	-13.360097	0.204939	-0.000086	0.099158	0.000000	0.682438	0.000000	0.000000	7.489379	0.000000	
0.142222	-95.544632	625.489974	-6.403646	0.649547	-0.000025	-0.071572	95.082333	414.146398	-6.907036	0.211785	-0.000025	0.097408	0.000000	0.897797	0.000000	0.000000	5.522806	0.000000	
0.155152	-111.947374	709.932870	-1.060517	0.661903	0.000073	-0.072813	76.389713	316.121021	-2.684962	0.223172	0.000073	0.095278	0.000000	1.359674	0.000000	0.000000	3.518751	0.000000	
0.168081	-124.466014	787.941832	4.202935	0.672621	0.000194	-0.073811	56.800360	227.262874	-0.542096	0.242656	0.000194	0.092375	0.000000	2.072041	0.000000	0.000000	1.646088	0.000000	
0.181010	-132.425035	856.617824	9.198046	0.681176	0.000314	-0.074684	38.084166	151.488676	-0.068947	0.276716	0.000314	0.087933	0.000000	2.979678	0.000000	0.000000	0.022775	0.000000	
0.193939	-135.600404	913.829351	13.856605	0.687151	0.000408	-0.075530	21.776768	91.145835	-0.706683	0.338852	0.000408	0.080250	0.000000	3.984467	0.000000	0.000000	-1.339680	0.000000	
0.206869	-134.223439	958.301900	18.186645	0.690357	0.000456	-0.076401	0.000000	0.000000	0.000000	0.202040	0.000456	-0.000457	0.000000	4.970512	0.000000	0.000000	0.000000	0.000000	
0.219798	-128.912396	989.559842	22.222730	0.690956	0.000457	-0.077328	0.000000	0.000000	0.000000	0.214577	0.000457	-0.000463	0.000000	5.836851	0.000000	0.000000	0.000000	0.000000	
0.232727	-120.559273	1007.824473	25.979924	0.689480	0.000428	-0.078303	0.000000	0.000000	0.000000	0.227078	0.000428	-0.000441	0.000000	6.519855	0.000000	0.000000	0.000000	0.000000	
0.245657	-110.180463	1013.916300	29.417836	0.686795	0.000396	-0.079312	0.000000	0.000000	0.000000	0.239548	0.000396	-0.000391	0.000000	6.996968	0.000000	0.000000	0.000000	0.000000	
0.258586	-98.760998	1009.177975	32.430491	0.683916	0.000383	-0.080340	0.000000	0.000000	0.000000	0.252018	0.000383	-0.000336	0.000000	7.282797	0.000000	0.000000	0.000000	0.000000	
0.271515	-87.122942	995.398220	34.866047	0.681731	0.000412	-0.081341	0.000000	0.000000	0.000000	0.264488	0.000412	-0.000268	0.000000	7.417315	0.000000	0.000000	0.000000	0.000000	
0.284444	-75.842241	974.704098	36.564958	0.680809	0.000479	-0.082281	0.000000	0.000000	0.000000	0.276958	0.000479	-0.000185	0.000000	7.443942	0.000000	0.000000	0.000000	0.000000	
0.297374	-65.231737	949.405726	37.405816	0.681304	0.000542	-0.083183	0.000000	0.000000	0.000000	0.289451	0.000542	-0.000119	0.000000	7.390483	0.000000	0.000000	0.000000	0.000000	
0.310303	-55.381621	921.800710	37.351249	0.682927	0.000570	-0.084074	0.000000	0.000000	0.000000	0.301971	0.000570	-0.000085	0.000000	7.263012	0.000000	0.000000	0.000000	0.000000	
0.323232	-46.237246	893.972097	36.479828	0.685070	0.000567	-0.084955	0.000000	0.000000	0.000000	0.314486	0.000567	-0.000053	0.000000	7.056490	0.000000	0.000000	0.000000	0.000000	
0.336162	-37.686129	867.627893	34.988933	0.687060	0.000547	-0.085842	0.000000	0.000000	0.000000	0.326967	0.000547	0.000000	0.000000	6.774785	0.000000	0.000000	0.000000	0.000000	
0.349091	-29.624127	844.015693	33.164811	0.688418	0.000509	-0.086786	0.000000	0.000000	0.000000	0.339436	0.000509	0.000053	0.000000	6.443703	0.000000	0.000000	0.000000	0.000000	
0.362020	-21.986625	823.922895	31.325474	0.688949	0.000455	-0.087818	0.000000	0.000000	0.000000	0.351918	0.000455	0.000083	0.000000	6.108522	0.000000	0.000000	0.000000	0.000000	
0.374949	-14.743419	807.744029	29.750858	0.688752	0.000398	-0.088916	0.000000	0.000000	0.000000	0.364416	0.000398	0.000100	0.000000	5.818261	0.000000	0.000000	0.000000	0.000000	
0.387879	-7.870030	795.577394	28.623115	0.688181	0.000350	-0.090027	0.000000	0.000000	0.000000	0.376926	0.000350	0.000116	0.000000	5.605783	0.000000	0.000000	0.000000	0.000000	
0.400808	-1.316037	787.331910	27.999448	0.687718	0.000320	-0.091087	0.000000	0.000000	0.000000	0.389442	0.000320	0.000138	0.000000	5.475674	0.000000	0.000000	0.000000	0.000000	
0.413737	5.016099	782.815805	27.824087	0.687822	0.000310	-0.092025	0.000000	0.000000	0.000000	0.401953	0.000310	0.000176	0.000000	5.405640	0.000000	0.000000	0.000000	0.000000	
0.426667	11.271467	781.799663	27.969509	0.688805	0.000313	-0.092811	0.000000	0.000000	0.000000	0.414466	0.000313	0.000208	0.000000	5.354679	0.000000	0.000000	0.000000	0.000000	
0.439596	17.624961	784.049604	28.292487	0.690739	0.000317	-0.093454	0.000000	0.000000	0.000000	0.427000	0.000317	0.000210	0.000000	5.273047	0.000000	0.000000	0.000000	0.000000	
0.452525	24.250385	789.332099	28.688592	0.693426	0.000321	-0.093968	0.000000	0.000000	0.000000	0.439548	0.000321	0.000188	0.000000	5.116215	0.000000	0.000000	0.000000	0.000000	
0.465455	31.282178	797.397447	29.127509	0.696508	0.000320	-0.094391	0.000000	0.000000	0.000000	0.452093	0.000320	0.000164	0.000000	4.857364	0.000000	0.000000	0.000000	0.000000	
0.478384	38.780006	807.949331	29.662089	0.699651	0.000309	-0.094793	0.000000	0.000000	0.000000	0.464627	0.000309	0.000148	0.000000	4.493437	0.000000	0.000000	0.000000	0.000000	
